<?xml version="1.0" encoding="utf-8"?>
<!-- Generator: Adobe Illustrator 19.1.0, SVG Export Plug-In . SVG Version: 6.00 Build 0)  -->
<svg version="1.1" id="Layer_1" xmlns="http://www.w3.org/2000/svg" xmlns:xlink="http://www.w3.org/1999/xlink" x="0px" y="0px"
	 viewBox="0 0 100 100" style="enable-background:new 0 0 100 100;" xml:space="preserve">
<style type="text/css">
	.st0{fill:#08B2CD;}
	.st1{fill:#FFFFFF;}
</style>
<rect x="0" y="0" class="st0" width="100" height="100"/>
<path class="st1" d="M78,32.6c-2.2-2.2-4.9-3.3-8-3.3c-3.1,0-5.7,1.1-7.9,3.3l-3.8,3.8l5.2,5.2l3.9-3.9c0.8-0.8,1.8-1.2,2.9-1.2
	c1.1,0,2.1,0.4,2.9,1.2c0.8,0.8,1.2,1.8,1.2,2.9c0,1.1-0.4,2.1-1.2,2.9L62.2,54.5c-0.6-1.3-1.4-2.5-2.4-3.6L42.3,33.6
	c-2.2-2.2-4.8-3.3-7.9-3.3c-3.1,0-5.7,1.1-7.9,3.2l-7.9,7.9l33.3,33.3l7.9-7.9c0.2-0.2,0.4-0.5,0.6-0.7L78,48.5
	c2.2-2.2,3.3-4.9,3.3-8C81.3,37.4,80.2,34.8,78,32.6z M41.6,54.3L28.8,41.5l3-3c0.8-0.8,1.7-1.2,2.9-1.2c1.1,0,2.1,0.4,2.9,1.2
	l9.3,9.3L44,50.8C42.9,51.8,42.1,53,41.6,54.3z M57.7,59.7l-3.4,3.4c0,0-0.1,0.1-0.1,0.1l-1.5,1.5l-6.4-6.4l1.5-1.5
	c0.4-0.4,0.9-0.6,1.5-0.6c0.6,0,1.1,0.2,1.5,0.6l1.8,1.8l2-2c0.4-0.4,0.9-0.6,1.5-0.6c0.6,0,1.1,0.2,1.5,0.6
	c0.4,0.4,0.6,0.9,0.6,1.5C58.4,58.8,58.1,59.3,57.7,59.7z"/>
</svg>
