<?xml version="1.0" encoding="utf-8"?>
<!-- Generator: Adobe Illustrator 19.1.0, SVG Export Plug-In . SVG Version: 6.00 Build 0)  -->
<svg version="1.1" id="Layer_1" xmlns="http://www.w3.org/2000/svg" xmlns:xlink="http://www.w3.org/1999/xlink" x="0px" y="0px"
	 viewBox="0 0 94.4 36.5" style="enable-background:new 0 0 94.4 36.5;" xml:space="preserve">
<style type="text/css">
	.st0{fill:#F15D62;}
	.st1{fill:#3D454E;}
</style>
<g>
	<path class="st0" d="M57.9,1.4C56.9,0.5,55.8,0,54.5,0s-2.4,0.5-3.3,1.4L49.6,3l2.2,2.2l1.6-1.6c0.3-0.3,0.7-0.5,1.2-0.5
		c0.5,0,0.9,0.1,1.2,0.5c0.4,0.3,0.5,0.7,0.5,1.1c0,0.5-0.2,0.9-0.5,1.2l-4.6,4.6c-0.2-0.5-0.6-1.1-1-1.5l-7.3-7.3
		c-0.9-0.9-2-1.4-3.3-1.4c-1.3,0-2.4,0.5-3.3,1.3L33,5.1L46.9,19l3.3-3.3c0.1-0.1,0.2-0.2,0.3-0.3l7.4-7.4c0.9-0.9,1.4-2.1,1.4-3.3
		C59.2,3.4,58.7,2.3,57.9,1.4z M42.6,10.5l-5.3-5.3l1.3-1.3c0.3-0.3,0.7-0.5,1.1-0.5s0.9,0.2,1.2,0.5l3.9,3.9l-1.2,1.2
		C43.1,9.4,42.8,9.9,42.6,10.5z M49.3,12.7l-1.4,1.4l-0.1,0.1l-0.6,0.6l-2.7-2.7l0.6-0.6c0.2-0.2,0.4-0.3,0.7-0.3
		c0.3,0,0.5,0.1,0.7,0.3l0.7,0.7l0.9-0.9c0.2-0.2,0.4-0.3,0.7-0.3c0.3,0,0.5,0.1,0.7,0.3s0.3,0.4,0.3,0.7
		C49.6,12.3,49.5,12.5,49.3,12.7z"/>
</g>
<g>
	<path class="st1" d="M0,27.4h3.1c0.6,0,1.1,0.1,1.7,0.2c0.5,0.2,0.9,0.3,1.2,0.6c0.4,0.2,0.6,0.5,0.8,0.8c0.2,0.3,0.4,0.6,0.5,1
		c0.2,0.3,0.2,0.7,0.3,1c0.1,0.2,0.1,0.5,0.1,0.8c0,0.5-0.1,1.1-0.3,1.7c-0.2,0.5-0.5,1-0.9,1.4c-0.4,0.4-0.9,0.8-1.5,1
		s-1.3,0.4-2.1,0.4H0V27.4z M1.2,35h1.5c0.5,0,1-0.1,1.4-0.2c0.5-0.2,0.8-0.4,1.2-0.6s0.6-0.6,0.8-1.1c0.2-0.5,0.3-0.9,0.3-1.4
		c0-0.3-0.1-0.6-0.2-1c-0.1-0.4-0.2-0.8-0.5-1.1c-0.2-0.4-0.6-0.6-1.1-0.8c-0.5-0.2-1.1-0.4-1.7-0.4H1.2C1.2,28.4,1.2,35,1.2,35z"/>
	<path class="st1" d="M11.4,27.4h5.7v1.1h-4.5v2.7h4.2v1.1h-4.2v2.8h4.7v1.1h-5.9V27.4z"/>
	<path class="st1" d="M23.7,27.4h1.1l3.8,8.9h-1.4L26.3,34H22l-0.9,2.2h-1.4L23.7,27.4z M25.8,33l-1.7-4.1l0,0L22.5,33H25.8z"/>
	<path class="st1" d="M31.6,27.4h3.1c0.5,0,1.1,0.1,1.4,0.2c0.4,0.2,0.7,0.4,0.8,0.6c0.2,0.2,0.4,0.5,0.5,0.8
		c0.1,0.3,0.2,0.6,0.2,0.8c0,0.3-0.1,0.5-0.2,0.8c-0.1,0.3-0.2,0.5-0.5,0.7c-0.2,0.2-0.4,0.4-0.7,0.5c-0.3,0.2-0.6,0.2-0.9,0.3
		l2.5,4h-1.5L34,32.4h-1.2v3.9h-1.2V27.4z M32.8,31.2h1.5c0.2,0,0.5,0,0.7-0.1c0.2,0,0.5-0.1,0.6-0.2c0.2-0.2,0.3-0.2,0.5-0.5
		c0.2-0.2,0.2-0.5,0.2-0.8c0-0.3-0.1-0.5-0.2-0.8s-0.2-0.3-0.5-0.5c-0.2-0.2-0.4-0.2-0.6-0.2c-0.2,0-0.5-0.1-0.7-0.1h-1.5V31.2z"/>
</g>
<g>
	<path class="st1" d="M46.6,29.6c-0.2-0.2-0.5-0.4-0.7-0.5C45.7,29,45.4,29,45,29c-0.4,0-0.7,0.1-1,0.2c-0.3,0.2-0.6,0.3-0.8,0.6
		c-0.2,0.2-0.4,0.5-0.5,0.9c-0.2,0.4-0.2,0.8-0.2,1.1c0,0.5,0.1,0.8,0.2,1.1c0.2,0.4,0.3,0.7,0.5,0.9c0.2,0.2,0.5,0.5,0.8,0.6
		s0.6,0.2,1,0.2s0.8-0.1,1.1-0.2c0.3-0.2,0.5-0.4,0.8-0.7l1.6,1.2c-0.4,0.5-0.8,0.9-1.4,1.1c-0.6,0.2-1.1,0.4-1.7,0.4
		c-0.7,0-1.4-0.1-1.9-0.3c-0.6-0.2-1.1-0.5-1.5-0.9c-0.5-0.4-0.8-0.9-1-1.4c-0.2-0.6-0.4-1.2-0.4-1.9s0.2-1.4,0.4-1.9
		c0.2-0.6,0.5-1.1,1-1.4c0.5-0.4,0.9-0.7,1.5-0.9c0.6-0.2,1.2-0.3,1.9-0.3c0.2,0,0.5,0,0.8,0.1c0.3,0.1,0.5,0.2,0.8,0.2
		c0.2,0.1,0.5,0.2,0.8,0.4s0.5,0.4,0.7,0.6L46.6,29.6z"/>
	<path class="st1" d="M54.2,27.4h1.6l3.9,8.9h-2.2l-0.8-1.9h-3.4l-0.8,1.9h-2.1L54.2,27.4z M55,29.9l-1.1,2.7h2.2L55,29.9z"/>
	<path class="st1" d="M62.5,27.4h3.4c0.5,0,0.9,0.1,1.3,0.2c0.4,0.1,0.8,0.2,1.1,0.5s0.5,0.5,0.8,0.8c0.2,0.4,0.3,0.8,0.3,1.3
		c0,0.6-0.2,1.1-0.5,1.6s-0.8,0.7-1.4,0.8l2.3,3.7h-2.4l-1.8-3.6h-1v3.6h-2L62.5,27.4L62.5,27.4z M64.4,31h1.1c0.2,0,0.4,0,0.5,0
		c0.2,0,0.4-0.1,0.5-0.1c0.2-0.1,0.3-0.2,0.4-0.3c0.1-0.2,0.2-0.3,0.2-0.5s-0.1-0.4-0.2-0.5c-0.1-0.2-0.2-0.2-0.4-0.3
		c-0.2-0.1-0.3-0.2-0.5-0.2c-0.2,0-0.4,0-0.5,0h-1.3L64.4,31L64.4,31z"/>
	<path class="st1" d="M72.5,27.4h3.4c0.5,0,0.9,0.1,1.3,0.2c0.4,0.1,0.8,0.2,1.1,0.5c0.3,0.2,0.5,0.5,0.8,0.8
		c0.2,0.4,0.3,0.8,0.3,1.3c0,0.6-0.2,1.1-0.5,1.6c-0.3,0.5-0.8,0.7-1.4,0.8l2.3,3.7h-2.4l-2-3.6h-1v3.6h-2L72.5,27.4L72.5,27.4z
		 M74.4,31h1.1c0.2,0,0.4,0,0.5,0c0.2,0,0.4-0.1,0.5-0.1c0.2-0.1,0.3-0.2,0.4-0.3s0.2-0.3,0.2-0.5s-0.1-0.4-0.2-0.5
		c-0.1-0.2-0.2-0.2-0.4-0.3c-0.2-0.1-0.3-0.2-0.5-0.2s-0.4,0-0.5,0h-1.3L74.4,31L74.4,31z"/>
	<path class="st1" d="M82.4,27.4h2v8.9h-2V27.4z"/>
	<path class="st1" d="M88.1,27.4h6v1.8H90v1.7h3.9v1.8H90v1.8h4.3v1.8h-6.2V27.4z"/>
</g>
</svg>
