<?xml version="1.0" encoding="utf-8"?>
<!-- Generator: Adobe Illustrator 19.1.0, SVG Export Plug-In . SVG Version: 6.00 Build 0)  -->
<svg version="1.1" id="Layer_1" xmlns="http://www.w3.org/2000/svg" xmlns:xlink="http://www.w3.org/1999/xlink" x="0px" y="0px"
	 viewBox="-29.4 93.5 194.6 169.5" style="enable-background:new -29.4 93.5 194.6 169.5;" xml:space="preserve">
<style type="text/css">
	.st0{fill:#75D8B4;}
	.st1{fill:#9BC9CC;}
	.st2{fill:#E8BF4D;}
	.st3{fill:#F9D25B;}
	.st4{fill:#F74B4B;}
	.st5{fill:#7F3030;}
	.st6{fill:#51CAF4;}
	.st7{fill:#F9993A;}
	.st8{fill:#F9D43A;}
	.st9{fill:#4D4D4D;}
</style>
<g>
	<g>
		<path class="st0" d="M128.1,263h-11.8c-5,0-9.6-2.5-13-7c-3.3-4.3-5.1-10.1-5.1-16.2v-70c0-1.2,1-2.2,2.2-2.2s2.2,1,2.2,2.2v70
			c0,10.3,6.1,18.8,13.7,18.8h11.8c1.2,0,2.2,1,2.2,2.2C130.4,262,129.4,263,128.1,263z"/>
	</g>
	<g>
		<path class="st0" d="M124.6,263c-5.8,0-10.6-5.9-10.6-13.2v-94.1c0-1.2,1-2.2,2.2-2.2s2.2,1,2.2,2.2v94.1c0,4.8,2.8,8.8,6.1,8.8
			c1.2,0,2.2,1,2.2,2.2C126.7,262,125.8,263,124.6,263z"/>
	</g>
	<g>
		<path class="st0" d="M113.3,263h-2.9c-7.3,0-14.2-3.7-19.3-10.4c-5-6.6-7.7-15.2-7.7-24.4v-40.4c0-1.2,1-2.2,2.2-2.2
			s2.2,1,2.2,2.2v40.4c0,16.8,10.1,30.4,22.5,30.4h2.9c1.2,0,2.2,1,2.2,2.2C115.5,262,114.5,263,113.3,263z"/>
	</g>
	<g>
		<path class="st0" d="M130.9,263h-11.8c-1.2,0-2.2-1-2.2-2.2c0-1.2,1-2.2,2.2-2.2h11.8c7.5,0,13.7-8.4,13.7-18.8v-70
			c0-1.2,1-2.2,2.2-2.2s2.2,1,2.2,2.2v70c0,6.1-1.8,11.8-5.1,16.2C140.4,260.5,135.8,263,130.9,263z"/>
	</g>
	<g>
		<path class="st0" d="M122.6,263c-1.2,0-2.2-1-2.2-2.2c0-1.2,1-2.2,2.2-2.2c3.3,0,6.1-4,6.1-8.8v-94.1c0-1.2,1-2.2,2.2-2.2
			s2.2,1,2.2,2.2v94.1C133.2,257.1,128.4,263,122.6,263z"/>
	</g>
	<g>
		<path class="st0" d="M136.9,263H134c-1.2,0-2.2-1-2.2-2.2c0-1.2,1-2.2,2.2-2.2h2.9c12.4,0,22.5-13.7,22.5-30.4v-40.4
			c0-1.2,1-2.2,2.2-2.2s2.2,1,2.2,2.2v40.4c0,9.2-2.7,17.9-7.7,24.4C151,259.3,144.2,263,136.9,263z"/>
	</g>
</g>
<g>
	<path class="st1" d="M67.4,149.4c-12.2,0-22.4,8.7-24.6,20.2c-1.9-4.1-3.5-8.6-3.5-16.4c0-9.3,2.3-13.9,4.6-18.7
		c2.5-5.1,5.2-10.5,5.2-21H44c0,9.3-2.3,13.9-4.6,18.7c-1.1,2.3-2.3,4.6-3.2,7.5c-2.5-11.2-12.5-19.6-24.5-19.6l0,0l0,0
		c0,13.2,10.2,24,23.2,25c-0.4,2.3-0.6,5-0.6,8.1c0,10.5,2.6,15.9,5.2,21c2.4,4.8,4.6,9.4,4.6,18.7c0,4.4-0.5,7.8-1.3,10.6
		c-1.9-11.9-12.3-21.1-24.8-21.1l0,0c0,13.3,10.3,24.2,23.4,25c-0.6,1.4-1.3,2.8-1.9,4.2c-2.5,5.1-5.2,10.5-5.2,21h5.1
		c0-9.3,2.3-13.9,4.6-18.7c2.5-5.1,5.2-10.5,5.2-21c0-8.9-1.9-14.1-4-18.6C57.6,172.9,67.4,162.3,67.4,149.4L67.4,149.4L67.4,149.4z
		"/>
</g>
<g>
	<path class="st2" d="M149.5,263c0-35.1-28.4-63.5-63.5-63.5S22.5,227.9,22.5,263"/>
</g>
<g>
	<path class="st3" d="M60.4,263c0-24.8-20.1-44.9-44.9-44.9s-44.9,20.1-44.9,44.9"/>
</g>
<g>
	<path class="st4" d="M8.8,201.8H6.9c-4.6,0-8.3,3.7-8.3,8.3V263h18.6v-52.9C17.2,205.5,13.4,201.8,8.8,201.8z"/>
</g>
<g>
	<circle class="st5" cx="7.9" cy="211.3" r="5.2"/>
</g>
<g>
	<path class="st4" d="M-12.9,216.6h-1.9c-4.6,0-8.3,3.7-8.3,8.3V263h18.6v-38.1C-4.5,220.3-8.3,216.6-12.9,216.6z"/>
</g>
<g>
	<circle class="st5" cx="-13.8" cy="226.1" r="5.2"/>
</g>
<g>
	<path class="st4" d="M83.2,216.6h-1.9c-4.6,0-8.3,3.7-8.3,8.3V263h18.6v-38.1C91.5,220.3,87.8,216.6,83.2,216.6z"/>
</g>
<g>
	<circle class="st5" cx="82.2" cy="226.1" r="5.2"/>
</g>
<g>
	<path class="st6" d="M-15.4,173.7c-5.6,0-10.2-4.6-10.2-10.2s4.6-10.2,10.2-10.2s10.2,4.6,10.2,10.2
		C-5.2,169.1-9.8,173.7-15.4,173.7z M-15.4,157.5c-3.3,0-6,2.7-6,6s2.7,6,6,6s6-2.7,6-6C-9.4,160.2-12.1,157.5-15.4,157.5z"/>
</g>
<g>
	<path class="st6" d="M159.1,128c-3.4,0-6.1-2.7-6.1-6.1s2.7-6.1,6.1-6.1c3.4,0,6.1,2.7,6.1,6.1C165.3,125.2,162.5,128,159.1,128z
		 M159.1,119.9c-1.1,0-1.9,0.9-1.9,1.9s0.9,1.9,1.9,1.9c1.1,0,1.9-0.9,1.9-1.9C161.1,120.8,160.2,119.9,159.1,119.9z"/>
</g>
<g>
	<path class="st6" d="M150.6,109.7c-4.5,0-8.1-3.6-8.1-8.1s3.6-8.1,8.1-8.1s8.1,3.6,8.1,8.1S155,109.7,150.6,109.7z M150.6,97.6
		c-2.2,0-3.9,1.8-3.9,3.9c0,2.2,1.8,3.9,3.9,3.9s3.9-1.8,3.9-3.9S152.7,97.6,150.6,97.6z"/>
</g>
<g>
	<path class="st6" d="M69.2,194.2c-6.8,0-12.4-5.5-12.4-12.4c0-6.8,5.5-12.4,12.4-12.4s12.4,5.5,12.4,12.4
		C81.6,188.7,76.1,194.2,69.2,194.2z M69.2,173.7c-4.5,0-8.2,3.7-8.2,8.2s3.7,8.2,8.2,8.2s8.2-3.7,8.2-8.2
		C77.4,177.3,73.8,173.7,69.2,173.7z"/>
</g>
<g>
	<path class="st6" d="M-9.7,149.6c-7.9,0-14.3-6.4-14.3-14.3S-17.6,121-9.7,121s14.3,6.4,14.3,14.3S-1.9,149.6-9.7,149.6z
		 M-9.7,125.3c-5.6,0-10.1,4.5-10.1,10.1c0,5.6,4.5,10.1,10.1,10.1S0.4,141,0.4,135.4C0.4,129.8-4.2,125.3-9.7,125.3z"/>
</g>
<g>
	<g>
		<path class="st7" d="M145.9,131.3c-4.6,7.3-11.7,11.4-19.2,12.3c-9.8,1.3-20.2-2.8-26.2-12.3c5.3-8.4,14-12.6,22.7-12.6
			c1.2,0,2.3,0.1,3.5,0.2C134.2,119.9,141.4,124,145.9,131.3z"/>
	</g>
	<g>
		<path class="st8" d="M145.9,131.3c-4.6,7.3-11.7,11.4-19.2,12.3c-2.3-3.6-3.6-7.8-3.6-12.3s1.3-8.8,3.6-12.3
			C134.2,119.9,141.4,124,145.9,131.3z"/>
	</g>
	<g>
		<circle class="st9" cx="132.2" cy="131.1" r="3.9"/>
	</g>
	<g>
		<path class="st7" d="M83.7,119c-0.4-0.1-0.9-0.1-1.3-0.1v24.9c0.4,0,0.9-0.1,1.3-0.1c7.5-1,14.7-5.1,19.2-12.3
			C98.4,124,91.3,119.9,83.7,119z"/>
	</g>
</g>
</svg>
