<?xml version="1.0" encoding="utf-8"?>
<!-- Generator: Adobe Illustrator 16.0.0, SVG Export Plug-In . SVG Version: 6.00 Build 0)  -->
<!DOCTYPE svg PUBLIC "-//W3C//DTD SVG 1.1//EN" "http://www.w3.org/Graphics/SVG/1.1/DTD/svg11.dtd">
<svg version="1.1" id="Capa_1" xmlns="http://www.w3.org/2000/svg" xmlns:xlink="http://www.w3.org/1999/xlink" x="0px" y="0px"
	 width="512px" height="512px" viewBox="0 0 512 512" enable-background="new 0 0 512 512" xml:space="preserve">
<g>
	<path fill="#E6BA0B" d="M511.298,196.312c-1.682-5.149-6.095-8.827-11.454-9.668l-159.73-22.698L268.235,19.452
		c-2.417-4.833-7.356-7.881-12.716-7.881l0,0c-5.359,0-10.298,3.048-12.715,7.987l-70.933,144.913L12.142,188.22
		c-5.359,0.841-9.773,4.519-11.455,9.668c-1.681,5.149-0.21,10.824,3.678,14.502l115.909,112.337L93.478,483.825
		c-0.946,5.359,1.261,10.719,5.674,13.872c2.417,1.786,5.359,2.731,8.302,2.731c2.312,0,4.519-0.525,6.621-1.681l142.601-75.557
		l143.021,74.716c2.102,1.051,4.309,1.576,6.516,1.576l0,0c7.776,0,14.187-6.41,14.187-14.187c0-1.156-0.105-2.207-0.421-3.258
		l-27.638-158.154l115.174-112.966C511.613,207.135,512.979,201.46,511.298,196.312z"/>
</g>
</svg>
